<?xml version="1.0" encoding="UTF-8" standalone="no"?><svg xmlns="http://www.w3.org/2000/svg" xmlns:xlink="http://www.w3.org/1999/xlink" contentScriptType="application/ecmascript" contentStyleType="text/css" height="334px" preserveAspectRatio="none" style="width:556px;height:334px;" version="1.1" viewBox="0 0 556 334" width="556px" zoomAndPan="magnify"><defs><filter height="300%" id="f1q8gvwq4p8q70" width="300%" x="-1" y="-1"><feGaussianBlur result="blurOut" stdDeviation="2.0"/><feColorMatrix in="blurOut" result="blurOut2" type="matrix" values="0 0 0 0 0 0 0 0 0 0 0 0 0 0 0 0 0 0 .4 0"/><feOffset dx="4.0" dy="4.0" in="blurOut2" result="blurOut3"/><feBlend in="SourceGraphic" in2="blurOut3" mode="normal"/></filter></defs><g><rect fill="#FEFECE" filter="url(#f1q8gvwq4p8q70)" height="33.9688" rx="12.5" ry="12.5" style="stroke: #A80036; stroke-width: 1.5;" width="165" x="10" y="154.9219"/><text fill="#000000" font-family="sans-serif" font-size="12" lengthAdjust="spacingAndGlyphs" textLength="145" x="20" y="176.0605">Things I've looked at today</text><rect fill="#FEFECE" filter="url(#f1q8gvwq4p8q70)" height="47.9375" rx="12.5" ry="12.5" style="stroke: #A80036; stroke-width: 1.5;" width="147" x="225" y="66.9844"/><text fill="#000000" font-family="sans-serif" font-size="12" lengthAdjust="spacingAndGlyphs" textLength="93" x="235" y="88.123">Getting control of</text><text fill="#000000" font-family="sans-serif" font-size="12" lengthAdjust="spacingAndGlyphs" textLength="124" x="238" y="102.0918">personal data you own</text><rect fill="#FEFECE" filter="url(#f1q8gvwq4p8q70)" height="33.9688" rx="12.5" ry="12.5" style="stroke: #A80036; stroke-width: 1.5;" width="65" x="422" y="20"/><a href="https://perkeep.org/" target="_top" xlink:actuate="onRequest" xlink:show="new" xlink:title="https://perkeep.org/" xlink:type="simple"><text fill="#0000FF" font-family="sans-serif" font-size="12" lengthAdjust="spacingAndGlyphs" text-decoration="underline" textLength="45" x="432" y="41.1387">Perkeep</text></a><path d="M372,90.9531 L382,90.9531 C397,90.9531 397,36.9844 412,36.9844 L422,36.9844 " fill="none" style="stroke: #A80036; stroke-width: 1.0;"/><rect fill="#FEFECE" filter="url(#f1q8gvwq4p8q70)" height="33.9688" rx="12.5" ry="12.5" style="stroke: #A80036; stroke-width: 1.5;" width="58" x="422" y="73.9688"/><a href="https://upspin.io/" target="_top" xlink:actuate="onRequest" xlink:show="new" xlink:title="https://upspin.io/" xlink:type="simple"><text fill="#0000FF" font-family="sans-serif" font-size="12" lengthAdjust="spacingAndGlyphs" text-decoration="underline" textLength="38" x="432" y="95.1074">Upspin</text></a><path d="M372,90.9531 L382,90.9531 C397,90.9531 397,90.9531 412,90.9531 L422,90.9531 " fill="none" style="stroke: #A80036; stroke-width: 1.0;"/><rect fill="#FEFECE" filter="url(#f1q8gvwq4p8q70)" height="33.9688" rx="12.5" ry="12.5" style="stroke: #A80036; stroke-width: 1.5;" width="47" x="422" y="127.9375"/><a href="https://solid.inrupt.com/" target="_top" xlink:actuate="onRequest" xlink:show="new" xlink:title="https://solid.inrupt.com/" xlink:type="simple"><text fill="#0000FF" font-family="sans-serif" font-size="12" lengthAdjust="spacingAndGlyphs" text-decoration="underline" textLength="27" x="432" y="149.0762">Solid</text></a><path d="M372,90.9531 L382,90.9531 C397,90.9531 397,144.9219 412,144.9219 L422,144.9219 " fill="none" style="stroke: #A80036; stroke-width: 1.0;"/><path d="M175,171.9063 L185,171.9063 C200,171.9063 200,90.9531 215,90.9531 L225,90.9531 " fill="none" style="stroke: #A80036; stroke-width: 1.0;"/><rect fill="#FEFECE" filter="url(#f1q8gvwq4p8q70)" height="47.9375" rx="12.5" ry="12.5" style="stroke: #A80036; stroke-width: 1.5;" width="123" x="225" y="174.9219"/><text fill="#000000" font-family="sans-serif" font-size="12" lengthAdjust="spacingAndGlyphs" textLength="78" x="235" y="196.0605">Web/Frontend</text><text fill="#000000" font-family="sans-serif" font-size="12" lengthAdjust="spacingAndGlyphs" textLength="103" x="235" y="210.0293">development in Go</text><rect fill="#FEFECE" filter="url(#f1q8gvwq4p8q70)" height="33.9688" rx="12.5" ry="12.5" style="stroke: #A80036; stroke-width: 1.5;" width="49" x="398" y="181.9063"/><a href="https://github.com/gopherjs/vecty" target="_top" xlink:actuate="onRequest" xlink:show="new" xlink:title="https://github.com/gopherjs/vecty" xlink:type="simple"><text fill="#0000FF" font-family="sans-serif" font-size="12" lengthAdjust="spacingAndGlyphs" text-decoration="underline" textLength="29" x="408" y="203.0449">Vecty</text></a><path d="M348,198.8906 L358,198.8906 C373,198.8906 373,198.8906 388,198.8906 L398,198.8906 " fill="none" style="stroke: #A80036; stroke-width: 1.0;"/><path d="M175,171.9063 L185,171.9063 C200,171.9063 200,198.8906 215,198.8906 L225,198.8906 " fill="none" style="stroke: #A80036; stroke-width: 1.0;"/><rect fill="#FEFECE" filter="url(#f1q8gvwq4p8q70)" height="33.9688" rx="12.5" ry="12.5" style="stroke: #A80036; stroke-width: 1.5;" width="146" x="225" y="262.8594"/><text fill="#000000" font-family="sans-serif" font-size="12" lengthAdjust="spacingAndGlyphs" textLength="126" x="235" y="283.998">CICD built into git hosts</text><rect fill="#FEFECE" filter="url(#f1q8gvwq4p8q70)" height="33.9688" rx="12.5" ry="12.5" style="stroke: #A80036; stroke-width: 1.5;" width="99" x="421" y="235.875"/><a href="https://help.github.com/en/actions/automating-your-workflow-with-github-actions" target="_top" xlink:actuate="onRequest" xlink:show="new" xlink:title="https://help.github.com/en/actions/automating-your-workflow-with-github-actions" xlink:type="simple"><text fill="#0000FF" font-family="sans-serif" font-size="12" lengthAdjust="spacingAndGlyphs" text-decoration="underline" textLength="79" x="431" y="257.0137">Github Actions</text></a><path d="M371,279.8438 L381,279.8438 C396,279.8438 396,252.8594 411,252.8594 L421,252.8594 " fill="none" style="stroke: #A80036; stroke-width: 1.0;"/><rect fill="#FEFECE" filter="url(#f1q8gvwq4p8q70)" height="33.9688" rx="12.5" ry="12.5" style="stroke: #A80036; stroke-width: 1.5;" width="124" x="421" y="289.8438"/><a href="https://confluence.atlassian.com/bitbucket/build-test-and-deploy-with-pipelines-792496469.html" target="_top" xlink:actuate="onRequest" xlink:show="new" xlink:title="https://confluence.atlassian.com/bitbucket/build-test-and-deploy-with-pipelines-792496469.html" xlink:type="simple"><text fill="#0000FF" font-family="sans-serif" font-size="12" lengthAdjust="spacingAndGlyphs" text-decoration="underline" textLength="104" x="431" y="310.9824">BitBucket Pipelines</text></a><path d="M371,279.8438 L381,279.8438 C396,279.8438 396,306.8281 411,306.8281 L421,306.8281 " fill="none" style="stroke: #A80036; stroke-width: 1.0;"/><path d="M175,171.9063 L185,171.9063 C200,171.9063 200,279.8438 215,279.8438 L225,279.8438 " fill="none" style="stroke: #A80036; stroke-width: 1.0;"/><!--
@startmindmap
* Things I've looked at today
** Getting control of \n personal data you own
*** [[https://perkeep.org/ Perkeep]]
*** [[https://upspin.io/ Upspin]]
*** [[https://solid.inrupt.com/ Solid]]
** Web/Frontend \ndevelopment in Go
*** [[https://github.com/gopherjs/vecty Vecty]]
** CICD built into git hosts
*** [[https://help.github.com/en/actions/automating-your-workflow-with-github-actions Github Actions]]
*** [[https://confluence.atlassian.com/bitbucket/build-test-and-deploy-with-pipelines-792496469.html BitBucket Pipelines]]
@endmindmap

PlantUML version 1.2019.08(Sat Jul 13 19:25:14 GMT 2019)
(GPL source distribution)
Java Runtime: OpenJDK Runtime Environment
JVM: OpenJDK 64-Bit Server VM
Java Version: 14-ea+15
Operating System: Linux
OS Version: 5.0.0-1027-azure
Default Encoding: UTF-8
Language: en
Country: US
--></g></svg>